#N canvas -9 -9 1920 1146 12;
#X obj 373 218 float;
#X obj 455 215 +;
#X floatatom 473 177 5 0 0 0 - - -;
#X msg 405 174 0;
#X obj 373 60 tgl 15 0 empty empty empty 17 7 0 10 -262144 -1 -1 1
1;
#X floatatom 440 58 5 0 0 0 - - -;
#X obj 373 101 metro 1000;
#X obj 632 288 bng 15 250 50 0 empty empty empty 17 7 0 10 -262144
-1 -1;
#X obj 673 288 bng 15 250 50 0 empty empty empty 17 7 0 10 -262144
-1 -1;
#X obj 693 288 bng 15 250 50 0 empty empty empty 17 7 0 10 -262144
-1 -1;
#X obj 612 288 bng 15 250 50 0 empty empty empty 17 7 0 10 -262144
-1 -1;
#X obj 591 288 bng 15 250 50 0 empty empty empty 17 7 0 10 -262144
-1 -1;
#X obj 652 288 bng 15 250 50 0 empty empty empty 17 7 0 10 -262144
-1 -1;
#X obj 591 232 select 0 1 2 3 4 5;
#X obj 373 267 send counter;
#X obj 591 137 receive counter;
#X floatatom 591 185 5 0 0 0 - - -;
#X obj 714 286 send reset;
#X text 703 313 Value of range;
#X text 665 184 Counter value;
#X obj 405 138 receive reset;
#X obj 719 70 random 6;
#X connect 0 0 1 0;
#X connect 0 0 14 0;
#X connect 1 0 0 1;
#X connect 2 0 1 1;
#X connect 3 0 0 1;
#X connect 4 0 6 0;
#X connect 5 0 6 1;
#X connect 6 0 0 0;
#X connect 13 0 11 0;
#X connect 13 1 10 0;
#X connect 13 2 7 0;
#X connect 13 3 12 0;
#X connect 13 4 8 0;
#X connect 13 5 9 0;
#X connect 13 6 17 0;
#X connect 15 0 16 0;
#X connect 16 0 13 0;
#X connect 20 0 3 0;
