#N canvas 369 331 1235 736 12;
#X obj 120 164 float;
#X obj 202 163 +;
#X floatatom 220 108 5 0 0 0 - - -;
#X floatatom 120 218 5 0 0 0 - - -;
#X msg 152 107 0;
#X obj 353 92 tgl 15 0 empty empty empty 17 7 0 10 -262144 -1 -1 0
1;
#X obj 353 219 bng 15 250 50 0 empty empty empty 17 7 0 10 -262144
-1 -1;
#X floatatom 420 92 5 0 0 0 - - -;
#X obj 392 216 send count;
#X obj 120 74 receive count;
#X obj 353 151 metro 1000;
#X connect 0 0 1 0;
#X connect 0 0 3 0;
#X connect 1 0 0 1;
#X connect 2 0 1 1;
#X connect 4 0 0 1;
#X connect 5 0 10 0;
#X connect 7 0 10 1;
#X connect 9 0 0 0;
#X connect 10 0 6 0;
#X connect 10 0 8 0;
