#N canvas 539 221 1183 766 12;
#X obj 191 197 +;
#X floatatom 191 96 5 0 0 0 - - -;
#X floatatom 244 96 5 0 0 0 - - -;
#X floatatom 191 259 5 0 0 0 - - -;
#X obj 244 149 trigger bang float;
#X connect 0 0 3 0;
#X connect 1 0 0 0;
#X connect 2 0 4 0;
#X connect 4 0 0 0;
#X connect 4 1 0 1;
