#N canvas 58 90 1089 620 12;
#X obj 30 32 tgl 19 0 empty empty empty 0 -10 0 12 #fcfcfc #000000 #000000 0 1;
#X msg 71 32 create;
#X msg 142 31 destroy;
#X obj 71 83 gemwin;
#X obj 244 31 gemhead;
#X obj 244 101 pix_image;
#X obj 244 219 pix_texture;
#X msg 260 64 open data/green-circles.png;
#X obj 244 254 rectangle 3 3;
#X obj 244 184 pix_flip;
#X msg 314 141 horizontal;
#X msg 262 141 none;
#X msg 408 141 vertical;
#X msg 486 141 both;
#X connect 0 0 3 0;
#X connect 1 0 3 0;
#X connect 2 0 3 0;
#X connect 4 0 5 0;
#X connect 5 0 9 0;
#X connect 6 0 8 0;
#X connect 7 0 5 0;
#X connect 9 0 6 0;
#X connect 10 0 9 0;
#X connect 11 0 9 0;
#X connect 12 0 9 0;
#X connect 13 0 9 0;
