#N canvas 26 190 1272 795 12;
#X obj 128 71 gemwin;
#X msg 128 28 create;
#X msg 192 28 destroy;
#X obj 99 29 tgl 15 0 empty empty empty 17 7 0 10 #fcfcfc #000000 #000000 0 1;
#X obj 342 34 gemhead;
#X msg 236 120 draw fill;
#X msg 236 156 draw line;
#X msg 236 187 draw point;
#X floatatom 367 189 5 0 0 0 - - - 0;
#X floatatom 362 64 5 0 0 0 - - - 0;
#X floatatom 382 88 5 0 0 0 - - - 0;
#X floatatom 402 111 5 0 0 0 - - - 0;
#X obj 342 235 cube;
#X obj 342 138 rotateXYZ;
#X text 14 155 Easier to see with "draw line";
#X text 438 75 Angles are in degrees;
#X connect 1 0 0 0;
#X connect 2 0 0 0;
#X connect 3 0 0 0;
#X connect 4 0 13 0;
#X connect 5 0 12 0;
#X connect 6 0 12 0;
#X connect 7 0 12 0;
#X connect 8 0 12 1;
#X connect 9 0 13 1;
#X connect 10 0 13 2;
#X connect 11 0 13 3;
#X connect 13 0 12 0;
