#N canvas 51 194 1122 767 12;
#X obj 93 64 gemwin;
#X msg 93 21 create;
#X msg 157 21 destroy;
#X obj 64 22 tgl 15 0 empty empty empty 17 7 0 10 #fcfcfc #000000 #000000 0 1;
#X obj 384 75 gemhead;
#X msg 297 241 draw line;
#X floatatom 411 133 5 0 0 0 - - - 0;
#X floatatom 438 154 5 0 0 0 - - - 0;
#X floatatom 465 174 5 0 0 0 - - - 0;
#X obj 384 104 ortho;
#X obj 384 198 translateXYZ;
#X obj 384 285 cube 0.75;
#X obj 384 241 rotateXYZ 45 45 45;
#X obj 144 104 gemhead;
#X msg 57 242 draw line;
#X floatatom 171 134 5 0 0 0 - - - 0;
#X floatatom 198 155 5 0 0 0 - - - 0;
#X floatatom 225 175 5 0 0 0 - - - 0;
#X obj 144 199 translateXYZ;
#X obj 144 286 cube 0.75;
#X obj 144 242 rotateXYZ 45 45 45;
#X connect 1 0 0 0;
#X connect 2 0 0 0;
#X connect 3 0 0 0;
#X connect 4 0 9 0;
#X connect 5 0 11 0;
#X connect 6 0 10 1;
#X connect 7 0 10 2;
#X connect 8 0 10 3;
#X connect 9 0 10 0;
#X connect 10 0 12 0;
#X connect 12 0 11 0;
#X connect 13 0 18 0;
#X connect 14 0 19 0;
#X connect 15 0 18 1;
#X connect 16 0 18 2;
#X connect 17 0 18 3;
#X connect 18 0 20 0;
#X connect 20 0 19 0;
