#N canvas 47 213 790 585 12;
#X obj 55 93 gemwin;
#X msg 55 33 create;
#X msg 119 33 destroy;
#X obj 24 35 tgl 15 0 empty empty empty 17 7 0 10 #fcfcfc #000000 #000000 0 1;
#X msg 193 32 reset;
#X obj 275 119 gemhead;
#X floatatom 314 182 5 0 0 0 - - - 0;
#X msg 169 105 draw fill;
#X msg 169 141 draw line;
#X msg 169 172 draw point;
#X obj 275 220 square;
#X connect 1 0 0 0;
#X connect 2 0 0 0;
#X connect 3 0 0 0;
#X connect 4 0 0 0;
#X connect 5 0 10 0;
#X connect 6 0 10 1;
#X connect 7 0 10 0;
#X connect 8 0 10 0;
#X connect 9 0 10 0;
