#N canvas -2 97 898 680 12;
#X obj 67 109 gemwin;
#X msg 67 59 create;
#X msg 131 59 destroy;
#X obj 37 61 tgl 15 0 empty empty empty 17 7 0 10 #fcfcfc #000000 #000000 0 1;
#X obj 302 36 gemhead;
#X msg 196 136 draw fill;
#X msg 196 170 draw line;
#X msg 196 203 draw point;
#X floatatom 322 185 5 0 0 0 - - - 0;
#X floatatom 341 219 5 0 0 0 - - - 0;
#X obj 302 251 sphere;
#X obj 302 154 colorRGB;
#X floatatom 315 73 5 0 0 0 - - - 0;
#X floatatom 329 96 5 0 0 0 - - - 0;
#X floatatom 341 119 5 0 0 0 - - - 0;
#X connect 1 0 0 0;
#X connect 2 0 0 0;
#X connect 3 0 0 0;
#X connect 4 0 11 0;
#X connect 5 0 10 0;
#X connect 6 0 10 0;
#X connect 7 0 10 0;
#X connect 8 0 10 1;
#X connect 9 0 10 2;
#X connect 11 0 10 0;
#X connect 12 0 11 1;
#X connect 13 0 11 2;
#X connect 14 0 11 3;
