#N canvas 15 255 1070 944 12;
#X obj 66 336 float;
#X obj 148 335 +;
#X floatatom 166 280 5 0 0 0 - - - 0;
#X floatatom 66 390 5 0 0 0 - - - 0;
#X msg 98 279 0;
#X obj 299 264 tgl 15 0 empty empty empty 17 7 0 10 #fcfcfc #000000
#000000 0 1;
#X obj 299 391 bng 15 250 50 0 empty empty empty 17 7 0 10 #fcfcfc
#000000 #000000;
#X floatatom 366 264 5 0 0 0 - - - 0;
#X obj 338 388 send count;
#X obj 66 246 receive count;
#X obj 299 323 metro 1000;
#X text 158 51 Units of metro are in milliseconds;
#X obj 63 154 float;
#X obj 145 153 +;
#X floatatom 163 98 5 0 0 0 - - - 0;
#X floatatom 63 208 5 0 0 0 - - - 0;
#X msg 95 97 0;
#X obj 63 22 tgl 15 0 empty empty empty 17 7 0 10 #fcfcfc #000000 #000000
0 1;
#X obj 63 52 metro 1000;
#X obj 63 99 bng 15 250 50 0 empty empty empty 17 7 0 10 #fcfcfc #000000
#000000;
#X floatatom 130 21 5 0 0 0 - - - 0;
#X connect 0 0 1 0;
#X connect 0 0 3 0;
#X connect 1 0 0 1;
#X connect 2 0 1 1;
#X connect 4 0 0 1;
#X connect 5 0 10 0;
#X connect 7 0 10 1;
#X connect 9 0 0 0;
#X connect 10 0 6 0;
#X connect 10 0 8 0;
#X connect 12 0 13 0;
#X connect 12 0 15 0;
#X connect 13 0 12 1;
#X connect 14 0 13 1;
#X connect 16 0 12 1;
#X connect 17 0 18 0;
#X connect 18 0 19 0;
#X connect 19 0 12 0;
#X connect 20 0 18 1;
