#N canvas 122 158 982 761 12;
#X obj 30 32 tgl 19 0 empty empty empty 0 -10 0 12 #fcfcfc #000000 #000000 0 1;
#X msg 71 32 create;
#X msg 142 31 destroy;
#X obj 71 83 gemwin;
#X obj 219 64 gemhead;
#X obj 219 194 pix_image;
#X obj 219 230 pix_texture;
#X msg 235 157 open data/green-circles.png;
#X obj 219 112 rotateXYZ;
#X msg 295 64 40;
#X msg 335 64 42;
#X msg 375 63 -4;
#X obj 295 19 loadbang;
#X obj 219 310 cube;
#X msg 244 283 1.4;
#X obj 244 256 loadbang;
#X connect 0 0 3 0;
#X connect 1 0 3 0;
#X connect 2 0 3 0;
#X connect 4 0 8 0;
#X connect 5 0 6 0;
#X connect 6 0 13 0;
#X connect 7 0 5 0;
#X connect 8 0 5 0;
#X connect 9 0 8 1;
#X connect 10 0 8 2;
#X connect 11 0 8 3;
#X connect 12 0 9 0;
#X connect 12 0 10 0;
#X connect 12 0 11 0;
#X connect 14 0 13 1;
#X connect 15 0 14 0;
