#N canvas 16 272 996 649 12;
#X obj 26 22 tgl 19 0 empty empty empty 0 -10 0 12 #fcfcfc #000000 #000000 0 1;
#X msg 56 22 create;
#X msg 119 21 destroy;
#X obj 56 57 gemwin;
#X floatatom 295 151 5 0 0 0 - - - 0;
#X floatatom 344 151 5 0 0 0 - - - 0;
#X obj 427 150 tgl 19 0 empty empty empty 25 10 0 12 #fcfcfc #000000 #000000 0 1;
#X obj 394 150 tgl 19 0 empty empty empty 25 10 0 12 #fcfcfc #000000 #000000 0 1;
#X obj 459 150 tgl 19 0 empty empty empty 25 10 0 12 #fcfcfc #000000 #000000 0 1;
#X obj 295 96 gemmouse 1 1;
#X obj 149 208 color;
#X obj 149 97 gemhead;
#X obj 149 242 translateXYZ;
#X obj 295 174 * 8;
#X obj 295 198 - 4;
#X obj 344 198 + 4;
#X obj 394 222 select 0 1;
#X obj 394 271 s blue;
#X obj 428 247 s red;
#X obj 149 273 square 0.2;
#X obj 181 152 r red;
#X obj 233 152 r blue;
#X msg 181 179 1 0 0;
#X msg 233 179 0 0 1;
#X obj 344 174 * -8;
#X obj 149 124 ortho;
#X obj 394 174 select 1;
#X obj 394 198 tgl 19 0 empty empty empty 0 -10 0 12 #fcfcfc #000000 #000000 0 1;
#X connect 0 0 3 0;
#X connect 1 0 3 0;
#X connect 2 0 3 0;
#X connect 4 0 13 0;
#X connect 5 0 24 0;
#X connect 7 0 26 0;
#X connect 9 0 4 0;
#X connect 9 1 5 0;
#X connect 9 2 7 0;
#X connect 9 3 6 0;
#X connect 9 4 8 0;
#X connect 10 0 12 0;
#X connect 11 0 25 0;
#X connect 12 0 19 0;
#X connect 13 0 14 0;
#X connect 14 0 12 1;
#X connect 15 0 12 2;
#X connect 16 0 17 0;
#X connect 16 1 18 0;
#X connect 20 0 22 0;
#X connect 21 0 23 0;
#X connect 22 0 10 1;
#X connect 23 0 10 1;
#X connect 24 0 15 0;
#X connect 25 0 10 0;
#X connect 26 0 27 0;
#X connect 27 0 16 0;
