#N canvas 185 233 1245 787 12;
#X obj 169 184 +;
#X floatatom 169 83 5 0 0 0 - - - 0;
#X floatatom 222 83 5 0 0 0 - - - 0;
#X floatatom 169 246 5 0 0 0 - - - 0;
#X obj 222 136 trigger bang float;
#X obj 51 179 +;
#X floatatom 51 236 5 0 0 0 - - - 0;
#X floatatom 51 117 5 0 0 0 - - - 0;
#X floatatom 105 116 5 0 0 0 - - - 0;
#X floatatom 377 125 5 0 0 0 - - - 0;
#X obj 377 171 trigger float float;
#X obj 377 212 print left;
#X obj 507 212 print right;
#X connect 0 0 3 0;
#X connect 1 0 0 0;
#X connect 2 0 4 0;
#X connect 4 0 0 0;
#X connect 4 1 0 1;
#X connect 5 0 6 0;
#X connect 7 0 5 0;
#X connect 8 0 5 1;
#X connect 9 0 10 0;
#X connect 10 0 11 0;
#X connect 10 1 12 0;
