#N canvas 26 87 1232 614 12;
#X obj 26 22 tgl 19 0 empty empty empty 0 -10 0 12 #fcfcfc #000000 #000000 0 1;
#X msg 56 22 create;
#X msg 119 21 destroy;
#X obj 56 57 gemwin;
#X floatatom 295 91 5 0 0 0 X - - 0;
#X floatatom 348 91 5 0 0 0 Y - - 0;
#X obj 412 64 tgl 19 0 empty empty middle-click 25 10 0 12 #fcfcfc #000000 #000000 0 1;
#X obj 412 89 tgl 19 0 empty empty left-click 25 10 0 12 #fcfcfc #000000 #000000 0 1;
#X obj 412 39 tgl 19 0 empty empty right-click 25 10 0 12 #fcfcfc #000000 #000000 0 1;
#X obj 295 20 gemmouse 1 1;
#X text 446 215 +y is down;
#X text 446 198 +x is right;
#X text 444 180 (0 \, 0) is top-left;
#X obj 92 161 tgl 19 0 empty empty empty 0 -10 0 12 #fcfcfc #000000 #000000 0 1;
#X msg 92 185 alias \$1;
#X obj 182 260 text2d;
#X floatatom 251 242 5 0 0 0 - - - 0;
#X obj 182 201 color;
#X obj 182 141 gemhead;
#X obj 295 140 pack f f;
#X msg 295 183 text \$1 : \$2;
#X msg 214 167 0.5 1 0;
#X connect 0 0 3 0;
#X connect 1 0 3 0;
#X connect 2 0 3 0;
#X connect 4 0 19 0;
#X connect 5 0 19 1;
#X connect 9 0 4 0;
#X connect 9 1 5 0;
#X connect 9 2 7 0;
#X connect 9 3 6 0;
#X connect 9 4 8 0;
#X connect 13 0 14 0;
#X connect 14 0 15 0;
#X connect 16 0 15 1;
#X connect 17 0 15 0;
#X connect 18 0 17 0;
#X connect 19 0 20 0;
#X connect 20 0 15 0;
#X connect 21 0 17 1;
