#N canvas 16 272 949 623 12;
#X obj 26 22 tgl 19 0 empty empty empty 0 -10 0 12 #fcfcfc #000000 #000000 0 1;
#X msg 56 22 create;
#X msg 119 21 destroy;
#X obj 56 57 gemwin;
#X floatatom 276 73 5 0 0 0 - - - 0;
#X floatatom 325 73 5 0 0 0 - - - 0;
#X obj 408 72 tgl 19 0 empty empty empty 25 10 0 12 #fcfcfc #000000 #000000 0 1;
#X obj 375 72 tgl 19 0 empty empty empty 25 10 0 12 #fcfcfc #000000 #000000 0 1;
#X obj 440 72 tgl 19 0 empty empty empty 25 10 0 12 #fcfcfc #000000 #000000 0 1;
#X obj 276 21 gemmouse 1 1;
#X obj 149 208 color;
#X obj 149 97 gemhead;
#X obj 149 242 translateXYZ;
#X obj 276 96 * 8;
#X obj 276 120 - 4;
#X obj 325 120 + 4;
#X obj 149 273 square 0.2;
#X obj 325 96 * -8;
#X obj 149 124 ortho;
#X obj 375 96 trigger f f;
#X obj 181 152 loadbang;
#X msg 181 179 0.5 1 0;
#X obj 276 177 spigot;
#X obj 410 178 spigot;
#X connect 0 0 3 0;
#X connect 1 0 3 0;
#X connect 2 0 3 0;
#X connect 4 0 13 0;
#X connect 5 0 17 0;
#X connect 7 0 19 0;
#X connect 9 0 4 0;
#X connect 9 1 5 0;
#X connect 9 2 7 0;
#X connect 9 3 6 0;
#X connect 9 4 8 0;
#X connect 10 0 12 0;
#X connect 11 0 18 0;
#X connect 12 0 16 0;
#X connect 13 0 14 0;
#X connect 14 0 22 0;
#X connect 15 0 23 0;
#X connect 17 0 15 0;
#X connect 18 0 10 0;
#X connect 19 0 22 1;
#X connect 19 1 23 1;
#X connect 20 0 21 0;
#X connect 21 0 10 1;
#X connect 22 0 12 1;
#X connect 23 0 12 2;
