#N canvas 50 129 1440 758 12;
#X obj 15 47 tgl 19 0 empty empty empty 0 -10 0 12 #fcfcfc #000000 #000000 0 1;
#X msg 48 48 create;
#X msg 114 48 destroy;
#X obj 48 113 gemwin;
#X obj 184 14 bng 19 250 50 0 empty empty empty 0 -10 0 12 #fcfcfc #000000 #000000;
#X obj 184 48 trigger b b;
#X msg 184 82 buffer 1;
#X msg 258 82 reset;
#X obj 349 15 bng 19 250 50 0 empty empty empty 0 -10 0 12 #fcfcfc #000000 #000000;
#X obj 274 268 gemhead;
#X obj 274 292 color;
#X obj 274 316 translateXYZ;
#X obj 378 252 pix_data;
#X obj 407 191 gemhead;
#X obj 530 144 random 1000;
#X obj 530 168 / 1000;
#X obj 530 192 t f f;
#X obj 625 144 random 1000;
#X obj 625 168 / 1000;
#X obj 625 192 t f f;
#X obj 407 215 pix_image;
#X obj 349 46 metro 0.01;
#X msg 517 70 open data/tesla.jpg;
#X obj 349 70 trigger b b b b b a;
#X obj 562 216 * 2;
#X obj 562 240 - 1;
#X obj 657 216 * 2;
#X obj 657 240 - 1;
#X obj 274 340 circle 0.02;
#X connect 0 0 3 0;
#X connect 1 0 3 0;
#X connect 2 0 3 0;
#X connect 4 0 5 0;
#X connect 5 0 6 0;
#X connect 5 1 7 0;
#X connect 6 0 3 0;
#X connect 7 0 3 0;
#X connect 8 0 21 0;
#X connect 9 0 10 0;
#X connect 10 0 11 0;
#X connect 11 0 28 0;
#X connect 12 1 10 1;
#X connect 13 0 20 0;
#X connect 14 0 15 0;
#X connect 15 0 16 0;
#X connect 16 0 12 2;
#X connect 16 1 24 0;
#X connect 17 0 18 0;
#X connect 18 0 19 0;
#X connect 19 0 12 3;
#X connect 19 1 26 0;
#X connect 20 0 12 1;
#X connect 21 0 23 0;
#X connect 22 0 20 0;
#X connect 23 0 9 0;
#X connect 23 1 12 0;
#X connect 23 2 13 0;
#X connect 23 3 14 0;
#X connect 23 4 17 0;
#X connect 23 5 22 0;
#X connect 24 0 25 0;
#X connect 25 0 11 1;
#X connect 26 0 27 0;
#X connect 27 0 11 2;
