#N canvas 461 108 1181 883 12;
#X obj 28 20 tgl 19 0 empty empty empty 0 -10 0 12 #fcfcfc #000000 #000000 0 1;
#X obj 68 64 gemwin;
#X msg 68 20 create;
#X msg 136 20 destroy;
#X obj 408 73 tgl 19 0 empty empty empty 0 -10 0 12 #fcfcfc #000000 #000000 0 1;
#X obj 408 212 counter;
#X msg 454 188 359;
#X msg 442 164 0;
#X msg 431 140 0;
#X floatatom 408 245 5 0 0 0 - - - 0;
#X obj 175 95 gemhead;
#X obj 175 128 rotateXYZ;
#X obj 175 181 translateXYZ;
#X floatatom 202 155 5 0 0 0 - - - 0;
#X obj 175 404 sphere 0.8 36;
#X obj 299 404 sphere 0.3 36;
#X obj 175 212 trigger a a;
#X floatatom 326 342 5 0 0 0 - - - 0;
#X obj 175 245 separator;
#X obj 299 245 separator;
#X obj 299 312 rotateXYZ;
#X obj 23 160 gemhead;
#X obj 23 194 world_light;
#X msg 214 19 lighting 1;
#X obj 175 277 color 1 1 0;
#X obj 408 279 * -2;
#X obj 499 106 loadbang;
#X obj 408 108 metro 20;
#X obj 299 277 color 1 0 1;
#X msg 86 296 draw line;
#X obj 299 370 translateXYZ;
#X text 246 154 2;
#X text 373 341 1.18;
#X msg 24 334 draw fill;
#X text 441 330 Rotation: [0 \, 359];
#X text 441 344 Translation: [-4 \, 4];
#X text 441 358 RGB: [0 \, 1];
#X connect 0 0 1 0;
#X connect 2 0 1 0;
#X connect 3 0 1 0;
#X connect 4 0 27 0;
#X connect 5 0 9 0;
#X connect 6 0 5 4;
#X connect 7 0 5 3;
#X connect 8 0 5 2;
#X connect 9 0 25 0;
#X connect 9 0 11 2;
#X connect 10 0 11 0;
#X connect 11 0 12 0;
#X connect 12 0 16 0;
#X connect 13 0 12 1;
#X connect 16 0 18 0;
#X connect 16 1 19 0;
#X connect 17 0 30 1;
#X connect 18 0 24 0;
#X connect 19 0 28 0;
#X connect 20 0 30 0;
#X connect 21 0 22 0;
#X connect 23 0 1 0;
#X connect 24 0 14 0;
#X connect 25 0 20 2;
#X connect 26 0 8 0;
#X connect 26 0 7 0;
#X connect 26 0 6 0;
#X connect 27 0 5 0;
#X connect 28 0 20 0;
#X connect 29 0 14 0;
#X connect 29 0 15 0;
#X connect 30 0 15 0;
#X connect 33 0 14 0;
#X connect 33 0 15 0;
