#N canvas 58 400 1175 596 12;
#X obj 124 156 gemwin;
#X msg 60 58 create;
#X msg 124 58 destroy;
#X obj 30 60 tgl 15 0 empty empty empty 17 7 0 10 #fcfcfc #000000 #000000 0 1;
#X msg 265 107 reset;
#X text 387 25 640 x 480 (width x height);
#X text 266 150 Click order:;
#X msg 265 26 dimen 640 480;
#X msg 265 53 title Pure_Data;
#X msg 265 79 color 0 0.7 1;
#X text 273 151;
#X text 273 169 1) Create;
#X text 273 185 2) Toggle;
#X text 273 202 3) ...;
#X text 273 218 4) Toggle;
#X text 273 234 5) Destroy;
#X text 391 123 Settings can actually be;
#X text 391 138 changed at any time;
#X connect 1 0 0 0;
#X connect 2 0 0 0;
#X connect 3 0 0 0;
#X connect 4 0 0 0;
#X connect 7 0 0 0;
#X connect 8 0 0 0;
#X connect 9 0 0 0;
