#N canvas 94 266 1416 506 12;
#X obj 30 32 tgl 19 0 empty empty empty 0 -10 0 12 #fcfcfc #000000 #000000 0 1;
#X msg 71 32 create;
#X msg 142 31 destroy;
#X obj 71 83 gemwin;
#X obj 244 31 gemhead;
#X obj 244 101 pix_image;
#X obj 244 173 pix_texture;
#X obj 244 208 rectangle 3 3;
#X obj 473 31 gemhead;
#X obj 473 101 pix_image;
#X msg 256 65 open data/confused-cubes.png;
#X msg 489 65 open data/green-circles.png;
#X obj 244 138 pix_add;
#X connect 0 0 3 0;
#X connect 1 0 3 0;
#X connect 2 0 3 0;
#X connect 4 0 5 0;
#X connect 5 0 12 0;
#X connect 6 0 7 0;
#X connect 8 0 9 0;
#X connect 9 0 12 1;
#X connect 10 0 5 0;
#X connect 11 0 9 0;
#X connect 12 0 6 0;
