#N canvas 72 628 1196 607 12;
#X obj 162 59 bng 15 250 50 0 empty empty empty 17 7 0 10 #fcfcfc #000000 #000000;
#X obj 162 97 print;
#X obj 306 58 hsl 128 15 0 127 0 0 empty empty empty -2 -8 0 10 #fcfcfc #000000 #000000 0 1;
#X text 159 28 Bang;
#X text 300 28 Slider;
#X text 153 147 Toggle;
#X text 299 141 Radio button;
#X obj 302 180 hradio 15 1 0 8 empty empty empty 0 -8 0 10 #fcfcfc #000000 #000000 0;
#X floatatom 157 221 5 0 0 0 - - - 0;
#X floatatom 302 220 5 0 0 0 - - - 0;
#X floatatom 303 96 5 0 0 0 - - - 0;
#X obj 157 181 tgl 15 0 empty empty empty 17 7 0 10 #fcfcfc #000000 #000000 0 1;
#X connect 0 0 1 0;
#X connect 2 0 10 0;
#X connect 7 0 9 0;
#X connect 11 0 8 0;
