#N canvas 31 149 1237 755 12;
#X msg 132 86 create;
#X msg 132 150 destroy;
#X obj 69 186 gemwin;
#X floatatom 316 119 5 0 0 0 - - - 0;
#X floatatom 370 119 5 0 0 0 - - - 0;
#X obj 453 118 tgl 19 0 empty empty empty 25 10 0 12 #fcfcfc #000000 #000000 0 1;
#X obj 420 118 tgl 19 0 empty empty empty 25 10 0 12 #fcfcfc #000000 #000000 0 1;
#X obj 539 118 tgl 19 0 empty empty empty 25 10 0 12 #fcfcfc #000000 #000000 0 1;
#X obj 316 81 gemmouse 1 1;
#X obj 205 280 color;
#X obj 205 169 gemhead;
#X obj 205 314 translateXYZ;
#X obj 316 199 * 8;
#X obj 316 223 - 4;
#X obj 370 223 + 4;
#X obj 370 199 * -8;
#X obj 205 196 ortho;
#X obj 237 224 loadbang;
#X msg 237 251 0.5 1 0;
#X obj 316 266 spigot;
#X obj 370 266 spigot;
#X obj 539 142 select 1;
#X obj 539 168 s clear;
#X obj 508 194 s draw;
#X obj 420 142 trigger b b f;
#X obj 409 224 r draw;
#X obj 205 345 circle 0.05;
#X obj 205 142 spigot;
#X obj 244 115 r draw;
#X obj 205 88 metro 5;
#X obj 131 11 tgl 19 0 empty empty empty 0 -10 0 12 #fcfcfc #000000 #000000 0 1;
#X obj 131 44 trigger f f;
#X obj 12 150 r clear;
#X msg 132 118 buffer 1;
#X connect 0 0 2 0;
#X connect 0 0 33 0;
#X connect 1 0 2 0;
#X connect 3 0 12 0;
#X connect 4 0 15 0;
#X connect 6 0 24 0;
#X connect 7 0 21 0;
#X connect 8 0 3 0;
#X connect 8 1 4 0;
#X connect 8 2 6 0;
#X connect 8 3 5 0;
#X connect 8 4 7 0;
#X connect 9 0 11 0;
#X connect 10 0 16 0;
#X connect 11 0 26 0;
#X connect 12 0 13 0;
#X connect 13 0 19 0;
#X connect 14 0 20 0;
#X connect 15 0 14 0;
#X connect 16 0 9 0;
#X connect 17 0 18 0;
#X connect 18 0 9 1;
#X connect 19 0 11 1;
#X connect 20 0 11 2;
#X connect 21 0 22 0;
#X connect 24 0 12 0;
#X connect 24 1 15 0;
#X connect 24 2 23 0;
#X connect 25 0 20 1;
#X connect 25 0 19 1;
#X connect 27 0 10 0;
#X connect 28 0 27 1;
#X connect 29 0 27 0;
#X connect 30 0 31 0;
#X connect 31 0 2 0;
#X connect 31 1 29 0;
#X connect 32 0 2 0;
#X connect 33 0 2 0;
