#N canvas 47 177 1106 645 12;
#X obj 30 32 tgl 19 0 empty empty empty 0 -10 0 12 #fcfcfc #000000 #000000 0 1;
#X msg 71 32 create;
#X msg 142 31 destroy;
#X obj 71 83 gemwin;
#X obj 244 31 gemhead;
#X obj 244 101 pix_image;
#X obj 244 240 pix_texture;
#X obj 244 275 rectangle 3 3;
#X obj 334 133 tgl 19 0 empty empty empty 0 -10 0 12 #fcfcfc #000000 #000000 0 1;
#X obj 260 133 tgl 19 0 empty empty empty 0 -10 0 12 #fcfcfc #000000 #000000 0 1;
#X obj 244 205 pix_lumaoffset;
#X msg 260 164 fill \$1;
#X msg 334 164 smooth \$1;
#X floatatom 428 165 5 0 0 0 - - - 0;
#X floatatom 482 166 5 0 0 0 - - - 0;
#X msg 260 64 open data/tesla.jpg;
#X connect 0 0 3 0;
#X connect 1 0 3 0;
#X connect 2 0 3 0;
#X connect 4 0 5 0;
#X connect 5 0 10 0;
#X connect 6 0 7 0;
#X connect 8 0 12 0;
#X connect 9 0 11 0;
#X connect 10 0 6 0;
#X connect 11 0 10 0;
#X connect 12 0 10 0;
#X connect 13 0 10 1;
#X connect 14 0 10 2;
#X connect 15 0 5 0;
