#N canvas -3 583 1683 646 12;
#X obj 25 202 float;
#X obj 107 199 +;
#X floatatom 125 155 5 0 0 0 - - - 0;
#X msg 57 156 0;
#X obj 25 29 tgl 15 0 empty empty empty 17 7 0 10 #fcfcfc #000000 #000000
0 1;
#X floatatom 92 27 5 0 0 0 - - - 0;
#X obj 25 70 metro 1000;
#X obj 284 257 bng 15 250 50 0 empty empty empty 17 7 0 10 #fcfcfc
#000000 #000000;
#X obj 325 257 bng 15 250 50 0 empty empty empty 17 7 0 10 #fcfcfc
#000000 #000000;
#X obj 345 257 bng 15 250 50 0 empty empty empty 17 7 0 10 #fcfcfc
#000000 #000000;
#X obj 264 257 bng 15 250 50 0 empty empty empty 17 7 0 10 #fcfcfc
#000000 #000000;
#X obj 243 257 bng 15 250 50 0 empty empty empty 17 7 0 10 #fcfcfc
#000000 #000000;
#X obj 304 257 bng 15 250 50 0 empty empty empty 17 7 0 10 #fcfcfc
#000000 #000000;
#X obj 243 201 select 0 1 2 3 4 5;
#X obj 25 255 send counter;
#X obj 243 106 receive counter;
#X floatatom 243 154 5 0 0 0 - - - 0;
#X obj 366 255 send reset;
#X text 355 282 Value of range;
#X text 317 153 Counter value;
#X obj 57 107 receive reset;
#X obj 317 36 random 6;
#X obj 57 134 bng 15 250 50 0 empty empty empty 17 7 0 10 #fcfcfc #000000
#000000;
#X text 387 195 If it is outside the range of 0 to 5 \, it passes the
bang to the last outlet;
#X text 388 37 Generates random number between 0 and 5;
#X connect 0 0 1 0;
#X connect 0 0 14 0;
#X connect 1 0 0 1;
#X connect 2 0 1 1;
#X connect 3 0 0 1;
#X connect 4 0 6 0;
#X connect 5 0 6 1;
#X connect 6 0 0 0;
#X connect 13 0 11 0;
#X connect 13 1 10 0;
#X connect 13 2 7 0;
#X connect 13 3 12 0;
#X connect 13 4 8 0;
#X connect 13 5 9 0;
#X connect 13 6 17 0;
#X connect 15 0 16 0;
#X connect 16 0 13 0;
#X connect 20 0 22 0;
#X connect 22 0 3 0;
