#N canvas 151 179 991 678 12;
#X obj 53 138 gemwin;
#X msg 53 56 create;
#X msg 118 56 destroy;
#X obj 23 58 tgl 15 0 empty empty empty 17 7 0 10 #fcfcfc #000000 #000000 0 1;
#X obj 370 156 gemhead;
#X msg 264 142 draw fill;
#X msg 264 178 draw line;
#X msg 264 209 draw point;
#X floatatom 390 191 5 0 0 0 - - - 0;
#X floatatom 409 225 5 0 0 0 - - - 0;
#X obj 48 229 gemhead;
#X obj 48 272 world_light;
#X obj 370 257 sphere;
#X obj 194 21 tgl 15 0 empty empty empty 17 7 0 10 #fcfcfc #000000 #000000 0 1;
#X msg 194 56 lighting \$1;
#X msg 122 197 1 1 0;
#X msg 137 232 0 0.2 0.7;
#X connect 1 0 0 0;
#X connect 2 0 0 0;
#X connect 3 0 0 0;
#X connect 4 0 12 0;
#X connect 5 0 12 0;
#X connect 6 0 12 0;
#X connect 7 0 12 0;
#X connect 8 0 12 1;
#X connect 9 0 12 2;
#X connect 10 0 11 0;
#X connect 13 0 14 0;
#X connect 14 0 0 0;
#X connect 15 0 11 1;
#X connect 16 0 11 1;
