#N canvas 39 676 1294 581 12;
#X obj 190 59 tgl 15 0 empty empty empty 17 7 0 10 #fcfcfc #000000
#000000 0 1;
#X obj 190 100 metro 1000;
#X obj 411 209 bng 15 250 50 0 empty empty empty 17 7 0 10 #fcfcfc
#000000 #000000;
#X obj 452 209 bng 15 250 50 0 empty empty empty 17 7 0 10 #fcfcfc
#000000 #000000;
#X obj 472 209 bng 15 250 50 0 empty empty empty 17 7 0 10 #fcfcfc
#000000 #000000;
#X obj 391 209 bng 15 250 50 0 empty empty empty 17 7 0 10 #fcfcfc
#000000 #000000;
#X obj 370 209 bng 15 250 50 0 empty empty empty 17 7 0 10 #fcfcfc
#000000 #000000;
#X obj 431 209 bng 15 250 50 0 empty empty empty 17 7 0 10 #fcfcfc
#000000 #000000;
#X obj 370 153 select 0 1 2 3 4 5;
#X obj 190 194 send counter;
#X obj 370 58 receive counter;
#X floatatom 370 106 5 0 0 0 - - - 0;
#X obj 190 146 random 6;
#X text 444 105 random value;
#X floatatom 257 58 5 0 0 0 - - - 0;
#X text 14 152 between 0 and 5;
#X text 14 137 Generates random number;
#X connect 0 0 1 0;
#X connect 1 0 12 0;
#X connect 8 0 6 0;
#X connect 8 1 5 0;
#X connect 8 2 2 0;
#X connect 8 3 7 0;
#X connect 8 4 3 0;
#X connect 8 5 4 0;
#X connect 10 0 11 0;
#X connect 11 0 8 0;
#X connect 12 0 9 0;
#X connect 14 0 1 1;
