#N canvas 195 123 1009 860 12;
#X obj 30 32 tgl 19 0 empty empty empty 0 -10 0 12 #fcfcfc #000000 #000000 0 1;
#X msg 71 32 create;
#X msg 142 31 destroy;
#X obj 71 83 gemwin;
#X obj 219 64 gemhead;
#X obj 219 278 pix_texture;
#X obj 219 112 rotateXYZ;
#X msg 295 64 40;
#X msg 335 64 42;
#X msg 375 63 -4;
#X obj 295 19 loadbang;
#X obj 219 358 cube;
#X msg 244 331 1.4;
#X obj 244 304 loadbang;
#X obj 239 145 hradio 19 1 0 8 empty empty empty 0 -10 0 12 #fcfcfc #000000 #000000 0;
#X msg 239 179 device \$1;
#X msg 134 180 enumerate;
#X obj 219 221 pix_video;
#X obj 279 250 print;
#X text 26 153 Enumerate to get cameras;
#X connect 0 0 3 0;
#X connect 1 0 3 0;
#X connect 2 0 3 0;
#X connect 4 0 6 0;
#X connect 5 0 11 0;
#X connect 6 0 17 0;
#X connect 7 0 6 1;
#X connect 8 0 6 2;
#X connect 9 0 6 3;
#X connect 10 0 7 0;
#X connect 10 0 8 0;
#X connect 10 0 9 0;
#X connect 12 0 11 1;
#X connect 13 0 12 0;
#X connect 14 0 15 0;
#X connect 15 0 17 0;
#X connect 16 0 17 0;
#X connect 17 0 5 0;
#X connect 17 1 18 0;
