#N canvas 26 190 1232 840 12;
#X obj 107 172 gemwin;
#X msg 43 74 create;
#X msg 107 74 destroy;
#X obj 13 76 tgl 15 0 empty empty empty 17 7 0 10 -262144 -1 -1 1 1
;
#X msg 199 74 reset;
#X obj 374 76 gemhead;
#X msg 268 176 draw fill;
#X msg 268 212 draw line;
#X msg 268 243 draw point;
#X floatatom 394 225 5 0 0 0 - - -;
#X floatatom 413 259 5 0 0 0 - - -;
#X obj 374 291 sphere;
#X obj 374 194 colorRGB;
#X floatatom 387 113 5 0 0 0 - - -;
#X floatatom 401 136 5 0 0 0 - - -;
#X floatatom 413 159 5 0 0 0 - - -;
#X connect 1 0 0 0;
#X connect 2 0 0 0;
#X connect 3 0 0 0;
#X connect 4 0 0 0;
#X connect 5 0 12 0;
#X connect 6 0 11 0;
#X connect 7 0 11 0;
#X connect 8 0 11 0;
#X connect 9 0 11 1;
#X connect 10 0 11 2;
#X connect 12 0 11 0;
#X connect 13 0 12 1;
#X connect 14 0 12 2;
#X connect 15 0 12 3;
