#N canvas 296 162 1530 905 12;
#X obj 190 211 gemwin;
#X msg 126 113 create;
#X msg 190 113 destroy;
#X obj 96 115 tgl 15 0 empty empty empty 17 7 0 10 -262144 -1 -1 1
1;
#X msg 331 81 dimen 640 480;
#X msg 331 108 title Pure_Data;
#X msg 331 134 color 1 1 1;
#X text 453 130 Need to click on settings messages before create;
#X msg 331 162 reset;
#X connect 1 0 0 0;
#X connect 2 0 0 0;
#X connect 3 0 0 0;
#X connect 4 0 0 0;
#X connect 5 0 0 0;
#X connect 6 0 0 0;
#X connect 8 0 0 0;
