#N canvas -9 -9 1920 1146 12;
#X obj 509 120 hsl 128 15 0 127 0 0 empty empty empty -2 -8 0 10 -262144
-1 -1 0 1;
#X obj 509 196 hradio 15 1 0 8 empty empty empty 0 -8 0 10 -262144
-1 -1 0;
#X obj 312 116 bng 15 250 50 0 empty empty empty 17 7 0 10 -262144
-1 -1;
#X obj 312 158 print;
#X obj 314 213 tgl 15 0 empty empty empty 17 7 0 10 -262144 -1 -1 0
1;
#X floatatom 314 250 5 0 0 0 - - -;
#X floatatom 506 152 5 0 0 0 - - -;
#X floatatom 509 230 5 0 0 0 - - -;
#X connect 0 0 6 0;
#X connect 1 0 7 0;
#X connect 2 0 3 0;
#X connect 4 0 5 0;
